#N canvas 0 22 596 408 10;
#X obj 282 35 bng 15 250 50 0 empty empty empty 17 7 0 10 -262144 -1
-1;
#X obj 339 101 smmp /decay 0.1;
#X obj 334 124 smmp /sustain 0.3;
#X obj 282 -1 loadbang;
#X text 300 34 reset;
#X obj 319 168 smmp /osc2diff 0.5;
#X obj 145 235 receive fromGUI;
#X obj 145 259 route list;
#X obj 145 356 send toGUI;
#X obj 112 97 poly 8 1;
#X obj 112 122 pack 0 0 0;
#X obj 112 144 route 1 2 3 4 5 6 7 8;
#X msg 143 71 clear;
#X obj 112 40 r noteOnOff;
#X obj -90 35 mmpkey /C03 60;
#X obj -90 54 mmpkey /D03 62;
#X obj -90 73 mmpkey /E03 64;
#X obj -90 92 mmpkey /F03 65;
#X obj -90 111 mmpkey /G03 67;
#X obj -90 130 mmpkey /A03 69;
#X obj -90 149 mmpkey /B03 71;
#X obj -90 175 mmpkey /C04 72;
#X obj -90 195 mmpkey /D04 74;
#X obj -90 214 mmpkey /E04 76;
#X obj -90 233 mmpkey /F04 77;
#X obj -90 252 mmpkey /G04 79;
#X obj -90 271 mmpkey /A04 81;
#X obj -90 290 mmpkey /B04 83;
#X obj 0 44 mmpkey /C#03 61;
#X obj 0 63 mmpkey /D#03 63;
#X obj 0 101 mmpkey /F#03 66;
#X obj 0 120 mmpkey /G#03 68;
#X obj 0 139 mmpkey /A#03 70;
#X obj 0 185 mmpkey /C#04 73;
#X obj 0 204 mmpkey /D#04 75;
#X obj 0 242 mmpkey /F#04 78;
#X obj 0 261 mmpkey /G#04 80;
#X obj 0 280 mmpkey /A#04 82;
#X obj 145 281 route /osc1 /osc2;
#X msg 145 329 list /osc1Label \$1;
#X msg 281 330 list /osc2Label \$1;
#X obj 298 233 smmp /osc2 0;
#X obj 307 212 smmp /osc1 0;
#X obj 145 307 wavename;
#X obj 314 190 smmp /mix 0;
#X obj 226 172 synth;
#X obj 329 146 smmp /release 0.1;
#X obj 353 59 smmp /level 0.66;
#X obj 343 80 smmp /attack 0.0001;
#X obj 281 308 wavename;
#X obj 150 194 synth;
#X obj 150 172 synth;
#X obj 112 172 synth;
#X obj 188 172 synth;
#X obj 112 194 synth;
#X obj 226 194 synth;
#X obj 188 194 synth;
#N canvas 0 22 450 300 wavetables 0;
#X obj 40 124 table sine;
#X obj 40 -25 loadbang;
#X obj 40 145 table sawtooth;
#X obj 40 166 table square;
#X msg 40 -2 \; sine sinesum 2048 1 \; sawtooth sinesum 2048 1 0.5
0.333333 0.25 0.2 0.166667 0.142857 0.125 0.111111 0.1 0.090909 0.083333
0.076923 \; sawtooth normalize 1 \; square sinesum 2048 1 0 0.333333
0 0.2 0 0.142857 0 0.111111 0 0.090909 0 0.076923 \; square normalize
1 \;;
#X connect 1 0 4 0;
#X restore 114 3 pd wavetables;
#X obj 343 -13 mmp /reset 1;
#X obj 343 9 select 1;
#X connect 0 0 1 0;
#X connect 0 0 2 0;
#X connect 0 0 5 0;
#X connect 0 0 12 0;
#X connect 0 0 41 0;
#X connect 0 0 42 0;
#X connect 0 0 44 0;
#X connect 0 0 46 0;
#X connect 0 0 47 0;
#X connect 0 0 48 0;
#X connect 3 0 0 0;
#X connect 6 0 7 0;
#X connect 7 0 38 0;
#X connect 9 0 10 0;
#X connect 9 1 10 1;
#X connect 9 2 10 2;
#X connect 10 0 11 0;
#X connect 11 0 52 0;
#X connect 11 1 51 0;
#X connect 11 2 53 0;
#X connect 11 3 45 0;
#X connect 11 4 54 0;
#X connect 11 5 50 0;
#X connect 11 6 56 0;
#X connect 11 7 55 0;
#X connect 12 0 9 0;
#X connect 13 0 9 0;
#X connect 38 0 43 0;
#X connect 38 1 49 0;
#X connect 39 0 8 0;
#X connect 40 0 8 0;
#X connect 43 0 39 0;
#X connect 49 0 40 0;
#X connect 58 0 59 0;
#X connect 59 0 0 0;
