#N canvas 0 22 450 300 10;
#X obj -29 47 receive fromGUI;
#X obj -29 74 route list;
#X obj -29 100 route \$1;
#X obj -29 154 outlet;
#X obj -29 127 * \$2;
#X connect 0 0 1 0;
#X connect 1 0 2 0;
#X connect 2 0 4 0;
#X connect 4 0 3 0;
