#N canvas 25 253 450 300 10;
#X obj 87 38 bng 15 250 50 0 empty empty empty 17 7 0 10 -262144 -1
-1;
#X obj 87 13 inlet;
#X obj 182 29 symbol \$1;
#X obj 182 7 loadbang;
#X obj 87 94 send toGUI;
#X obj 87 61 pack s \$2;
#X connect 0 0 5 0;
#X connect 1 0 0 0;
#X connect 2 0 5 0;
#X connect 3 0 2 0;
#X connect 5 0 4 0;
