#N canvas 385 22 523 520 10;
#X obj 23 -38 inlet;
#X obj 23 -15 unpack f f;
#X obj -120 214 mtof;
#X obj -22 181 +;
#X obj 29 285 expr 1-$f1;
#X obj -70 373 +~;
#X obj -35 403 *~;
#X obj 99 42 sel 0;
#X msg 99 115 0;
#X msg 129 115 1;
#X obj 126 64 t b f;
#X text 20 -54 note [0:127] \, velocity [0:1];
#X obj -43 123 f;
#X obj 39 9 swap;
#X obj -7 159 - 1;
#X obj -22 210 mtof;
#X obj -41 435 dac~;
#X obj -120 343 *~ 1;
#X obj -22 288 *~ 0;
#X obj 141 325 adsr 1 100 100 50 400;
#X obj 165 280 * 1;
#X obj 190 234 mmp /attack 1000;
#X obj 214 257 mmp /decay 1000;
#X obj 239 278 mmp /sustain 100;
#X obj 264 297 mmp /release 3000;
#X obj -7 139 mmp /osc2diff 2;
#X obj 29 262 mmp /mix 1;
#X obj -101 239 mmp /osc1 1;
#X obj 17 230 mmp /osc2 1;
#X obj -120 261 wavegen;
#X obj -22 252 wavegen;
#X obj 51 206 print;
#X obj 180 211 mmp /level 1;
#X connect 0 0 1 0;
#X connect 1 0 13 0;
#X connect 1 1 13 1;
#X connect 2 0 29 0;
#X connect 3 0 15 0;
#X connect 4 0 17 1;
#X connect 5 0 6 0;
#X connect 6 0 16 0;
#X connect 6 0 16 1;
#X connect 7 0 8 0;
#X connect 7 1 10 0;
#X connect 8 0 19 0;
#X connect 9 0 19 0;
#X connect 10 0 9 0;
#X connect 10 0 12 0;
#X connect 10 1 20 0;
#X connect 12 0 2 0;
#X connect 12 0 3 0;
#X connect 13 0 7 0;
#X connect 13 1 12 1;
#X connect 14 0 3 1;
#X connect 15 0 30 0;
#X connect 17 0 5 0;
#X connect 18 0 5 1;
#X connect 19 0 6 1;
#X connect 20 0 19 1;
#X connect 21 0 19 2;
#X connect 22 0 19 3;
#X connect 23 0 19 4;
#X connect 24 0 19 5;
#X connect 25 0 14 0;
#X connect 26 0 4 0;
#X connect 26 0 18 1;
#X connect 27 0 29 2;
#X connect 28 0 30 2;
#X connect 28 0 31 0;
#X connect 29 0 17 0;
#X connect 30 0 18 0;
#X connect 32 0 20 1;
