#N canvas 93 433 510 339 10;
#X obj 82 136 tabread4~ sine;
#X obj -49 48 phasor~;
#X msg 23 82 set sine;
#X msg 83 82 set sawtooth;
#X obj -49 80 *~ 2048;
#X msg 170 82 set square;
#X obj -49 9 inlet;
#X obj 243 233 outlet~;
#X obj 188 11 inlet;
#X obj 37 9 inlet;
#X obj 85 48 select 0 1 2;
#X obj 279 48 select 3;
#X obj 266 136 noise~;
#X obj 203 190 *~ 1;
#X msg 197 135 0;
#X msg 228 135 1;
#X msg 347 137 0;
#X msg 310 135 1;
#X text 23 -9 reset phase;
#X text -61 -11 frequency;
#X text 170 -24 waveform type;
#X text 168 -8 0: sine \, 1: sawtooth \, 2: square \, 3: noise;
#X obj 324 72 bng 15 250 50 0 empty empty empty 17 7 0 10 -262144 -1
-1;
#X obj 266 191 *~ 0;
#X connect 0 0 13 0;
#X connect 1 0 4 0;
#X connect 2 0 0 0;
#X connect 3 0 0 0;
#X connect 4 0 0 0;
#X connect 5 0 0 0;
#X connect 6 0 1 0;
#X connect 8 0 10 0;
#X connect 8 0 11 0;
#X connect 9 0 1 1;
#X connect 10 0 2 0;
#X connect 10 1 3 0;
#X connect 10 2 5 0;
#X connect 11 0 14 0;
#X connect 11 0 17 0;
#X connect 11 1 22 0;
#X connect 12 0 23 0;
#X connect 13 0 7 0;
#X connect 14 0 13 1;
#X connect 15 0 13 1;
#X connect 16 0 23 1;
#X connect 17 0 23 1;
#X connect 22 0 16 0;
#X connect 22 0 15 0;
#X connect 23 0 7 0;
