#N canvas 0 22 356 222 10;
#X obj 22 35 inlet;
#X obj 22 130 tabplay~ \$0-sample;
#X obj 67 94 bng 15 250 50 0 empty empty empty 17 7 0 10 -262144 -1
-1;
#X msg 22 94 stop;
#X obj 22 60 select 0;
#X obj 162 132 load \$1 \$0-sample;
#X obj 22 162 dac~;
#X connect 0 0 4 0;
#X connect 1 0 6 0;
#X connect 1 0 6 1;
#X connect 1 1 2 0;
#X connect 2 0 1 0;
#X connect 3 0 1 0;
#X connect 4 0 3 0;
#X connect 4 1 2 0;
